<?xml version="1.0" standalone="no"?>
<!DOCTYPE svg PUBLIC "-//W3C//DTD SVG 20010904//EN"
 "http://www.w3.org/TR/2001/REC-SVG-20010904/DTD/svg10.dtd">
<svg version="1.0" xmlns="http://www.w3.org/2000/svg"
 width="1000.000000pt" height="1000.000000pt" viewBox="0 0 1000.000000 1000.000000"
 preserveAspectRatio="xMidYMid meet">

<g transform="translate(0.000000,1000.000000) scale(0.100000,-0.100000)"
fill="#000000" stroke="none">
<path d="M2390 7961 c0 -455 -4 -722 -10 -726 -5 -3 -12 7 -15 22 -4 15 -10
35 -16 43 -10 16 -16 30 -24 56 -3 8 -9 12 -15 9 -6 -4 -10 -56 -10 -125 0
-86 -4 -122 -13 -132 -8 -7 -17 -30 -21 -51 -4 -20 -11 -37 -16 -37 -14 0 -13
53 1 67 14 14 24 313 10 333 -15 21 -20 11 -27 -56 -8 -69 -33 -104 -75 -104
-18 0 -35 9 -49 28 -24 29 -24 60 -4 274 7 71 -1 138 -16 138 -6 0 -10 -27
-10 -59 0 -65 -6 -91 -22 -91 -10 0 -7 81 8 188 9 66 -33 96 -78 55 -24 -22
-31 -13 -52 77 -10 41 -24 89 -32 107 -8 17 -14 34 -14 38 0 4 -13 27 -30 52
-16 24 -30 46 -30 49 0 3 -19 28 -42 55 -99 115 -279 216 -415 232 -52 6 -80
-16 -42 -33 101 -43 268 -214 337 -345 30 -56 62 -93 69 -77 12 29 21 6 27
-70 4 -46 13 -101 20 -123 43 -128 71 -397 57 -535 -4 -41 -4 -84 0 -95 l7
-20 7 20 c3 11 10 27 15 35 23 40 90 179 90 188 0 5 7 15 15 22 8 7 15 23 15
36 0 13 6 27 14 31 8 4 16 25 18 46 4 46 22 54 26 11 2 -19 -3 -36 -12 -44 -9
-7 -16 -25 -16 -40 0 -15 -7 -33 -15 -40 -8 -7 -15 -23 -15 -35 0 -12 -7 -28
-15 -35 -8 -7 -15 -23 -15 -35 0 -12 -7 -28 -15 -35 -8 -7 -15 -19 -15 -27 0
-13 -15 -48 -41 -93 -5 -8 -12 -22 -16 -30 -3 -8 -14 -33 -23 -55 -19 -42 -48
-220 -38 -230 3 -4 27 14 52 39 25 25 48 46 51 46 13 0 1 -19 -40 -65 -24 -27
-51 -64 -60 -82 -16 -33 -21 -163 -6 -163 5 0 17 12 26 28 24 36 203 200 309
282 19 15 19 14 2 -18 -9 -18 -82 -101 -162 -184 -195 -203 -206 -225 -208
-427 0 -80 2 -158 6 -172 8 -29 37 -46 42 -26 2 6 11 48 21 92 55 250 116 370
265 530 102 109 174 208 211 295 6 14 17 37 25 52 8 14 14 37 14 50 0 12 4 30
10 38 8 13 10 13 14 0 3 -8 7 -618 9 -1355 2 -1046 5 -1354 15 -1405 8 -36 18
-87 23 -115 16 -81 36 -166 53 -222 9 -29 22 -74 30 -100 23 -76 47 -137 57
-148 5 -5 9 -15 9 -23 0 -22 116 -257 177 -357 203 -337 471 -619 802 -840 24
-16 45 -35 48 -42 9 -22 -40 -103 -93 -153 -29 -27 -79 -61 -111 -76 -52 -23
-70 -26 -176 -26 -86 1 -125 5 -149 16 -17 9 -37 16 -44 16 -7 0 -33 20 -58
45 -26 25 -49 45 -51 45 -3 0 -5 -16 -5 -35 0 -19 5 -35 10 -35 6 0 14 -8 17
-17 8 -23 77 -93 91 -93 5 0 12 -7 16 -15 3 -8 15 -15 26 -15 11 0 23 -7 26
-15 4 -8 18 -15 33 -15 15 0 36 -7 47 -15 18 -13 16 -14 -22 -15 -25 0 -47 6
-54 15 -7 8 -20 15 -30 15 -10 0 -23 7 -30 15 -7 8 -16 15 -21 15 -14 0 -86
76 -114 119 -27 44 -31 71 -14 88 6 6 9 25 7 43 -4 41 -28 54 -28 16 0 -15 -7
-29 -16 -33 -23 -8 -12 -108 17 -165 22 -42 134 -158 153 -158 5 0 17 -6 25
-14 9 -7 45 -23 81 -36 100 -34 225 -19 360 43 96 44 207 195 225 305 8 51 27
51 37 1 35 -174 103 -320 193 -417 32 -35 68 -68 80 -73 11 -5 27 -13 35 -18
56 -34 106 -45 198 -44 103 1 132 10 218 65 66 43 134 138 149 210 7 36 30 41
136 28 117 -14 342 -14 458 0 109 14 127 9 137 -33 15 -69 95 -180 152 -211
108 -58 183 -73 282 -57 177 29 290 138 390 376 13 31 36 116 48 174 10 50 29
50 37 -1 13 -77 60 -165 122 -226 91 -91 204 -135 348 -136 84 -1 95 1 165 36
84 41 174 122 208 187 30 57 40 142 18 160 -9 7 -16 25 -16 38 0 37 -24 23
-28 -17 -2 -18 1 -37 7 -43 16 -16 13 -53 -4 -67 -8 -7 -15 -18 -15 -25 0 -14
-95 -115 -108 -115 -5 0 -15 -7 -22 -15 -7 -8 -21 -15 -31 -15 -9 0 -24 -7
-33 -15 -8 -8 -32 -15 -53 -15 -36 1 -37 2 -19 15 11 8 32 15 47 15 15 0 29 7
33 15 3 8 15 15 26 15 11 0 23 7 26 15 4 8 10 15 15 15 12 0 84 73 92 93 3 9
11 17 17 17 5 0 10 16 10 35 0 19 -2 35 -5 35 -2 0 -25 -20 -51 -45 -25 -25
-51 -45 -58 -45 -7 0 -27 -7 -44 -16 -24 -11 -63 -15 -149 -16 -106 0 -124 3
-176 26 -91 41 -207 164 -207 220 0 8 18 27 41 43 326 226 556 457 758 763 76
115 231 410 231 439 0 7 6 25 14 39 15 28 62 165 89 262 15 51 34 141 68 310
11 51 14 353 16 1405 2 737 6 1347 9 1355 4 13 6 13 14 0 6 -8 10 -26 10 -38
0 -13 6 -36 14 -50 7 -15 26 -54 42 -86 36 -73 113 -177 197 -265 142 -149
208 -283 262 -526 26 -118 24 -113 45 -88 24 30 33 112 25 240 -10 158 -32
197 -211 382 -78 81 -149 162 -159 180 -21 41 -14 37 89 -52 122 -105 189
-168 214 -204 13 -18 28 -33 33 -33 15 0 10 129 -6 163 -9 18 -36 55 -60 82
-41 46 -53 65 -40 65 2 0 25 -21 50 -46 26 -25 49 -43 53 -40 3 4 0 48 -7 99
-12 86 -40 163 -97 269 -8 14 -14 33 -14 41 0 8 -7 20 -15 27 -8 7 -15 23 -15
35 0 12 -7 28 -15 35 -8 7 -15 23 -15 35 0 12 -7 28 -15 35 -8 7 -15 25 -15
40 0 15 -7 33 -16 40 -9 8 -14 25 -12 44 4 43 22 35 26 -11 2 -21 10 -42 18
-46 8 -4 14 -18 14 -31 0 -13 7 -29 15 -36 8 -7 15 -17 15 -22 0 -15 81 -177
91 -184 5 -3 9 -14 9 -25 0 -20 16 -26 22 -8 2 7 0 44 -4 83 -12 104 9 351 39
466 13 52 30 140 36 195 11 86 14 97 24 80 13 -20 13 -20 33 5 11 14 29 42 40
62 42 78 87 136 171 221 49 48 98 92 111 98 66 30 79 40 67 55 -33 39 -241
-37 -373 -136 -80 -61 -179 -189 -201 -261 -4 -13 -11 -28 -15 -34 -4 -5 -15
-46 -25 -90 -21 -94 -28 -104 -53 -82 -45 41 -87 11 -78 -55 3 -24 9 -76 12
-117 6 -60 4 -73 -7 -69 -10 3 -15 26 -17 76 -2 40 -7 72 -12 72 -16 0 -23
-69 -16 -149 20 -226 20 -234 -4 -263 -48 -62 -113 -23 -125 75 -8 64 -21 81
-31 41 -11 -41 2 -304 15 -317 13 -13 15 -67 2 -67 -11 0 -21 25 -21 52 0 10
-7 26 -15 34 -12 12 -15 42 -15 134 0 65 -4 121 -9 124 -10 7 -45 -62 -55
-107 -21 -93 -26 32 -26 704 l0 719 -2610 0 -2610 0 0 -719z m5105 -1436 c0
-2099 1 -2069 -39 -2270 -68 -344 -153 -552 -369 -910 -26 -42 -134 -184 -203
-265 -139 -163 -333 -334 -514 -452 -135 -88 -254 -150 -440 -232 -38 -16
-224 -77 -305 -100 -369 -103 -881 -103 -1250 0 -72 20 -266 83 -290 94 -11 5
-42 18 -70 30 -472 201 -891 568 -1157 1015 -80 135 -161 300 -201 410 -65
181 -85 258 -139 545 -11 56 -24 4130 -14 4157 4 11 448 13 2498 11 l2493 -3
0 -2030z m-5795 1629 c0 -14 -4 -23 -10 -19 -5 3 -10 15 -10 26 0 10 5 19 10
19 6 0 10 -12 10 -26z m6620 7 c0 -11 -4 -22 -9 -25 -11 -7 -20 14 -13 32 7
19 22 14 22 -7z m-6581 -113 c1 -31 -14 -45 -23 -22 -8 22 -8 69 1 78 9 9 21
-21 22 -56z m6551 22 c0 -36 -10 -61 -21 -54 -10 6 -12 54 -3 78 9 24 24 9 24
-24z m-4590 -5649 c0 -22 -63 -120 -107 -166 -40 -42 -104 -91 -130 -99 -13
-4 -23 -12 -23 -17 0 -5 -14 -9 -30 -9 -18 0 -33 -6 -36 -15 -5 -11 -22 -15
-62 -15 -68 0 -60 17 13 26 28 4 54 13 58 21 4 7 19 13 31 13 13 0 26 7 30 15
3 8 12 15 19 15 8 0 25 9 38 21 13 12 33 29 44 38 30 24 115 137 115 153 0 15
19 38 32 38 4 0 8 -9 8 -19z m2632 -8 c16 -38 97 -143 127 -168 14 -11 32 -28
40 -37 9 -10 23 -18 32 -18 9 0 19 -7 23 -15 3 -8 17 -15 30 -15 14 0 29 -6
33 -13 4 -8 30 -17 58 -21 73 -9 81 -26 13 -26 -40 0 -57 4 -62 15 -3 9 -18
15 -36 15 -16 0 -30 4 -30 9 0 5 -10 13 -22 17 -22 6 -86 52 -118 84 -32 32
-90 108 -90 117 0 6 -7 16 -15 23 -17 14 -21 60 -5 60 6 0 16 -12 22 -27z
m-2442 -56 c41 -19 100 -44 130 -57 30 -12 70 -28 88 -36 18 -8 41 -14 52 -14
10 0 21 -4 25 -9 3 -5 20 -12 38 -16 17 -4 52 -13 77 -20 25 -8 71 -21 102
-30 32 -9 60 -19 62 -24 10 -15 -31 -104 -63 -137 -61 -62 -104 -78 -216 -78
-92 0 -104 2 -148 28 -26 15 -63 47 -83 69 -43 51 -134 234 -134 270 0 8 -7
30 -15 50 -13 31 -11 52 4 43 3 -2 40 -19 81 -39z m2300 -21 c-32 -108 -90
-233 -134 -288 -16 -21 -54 -55 -84 -75 -54 -38 -55 -38 -156 -37 -111 0 -157
16 -216 76 -33 32 -73 115 -66 134 4 12 30 21 176 61 30 9 70 22 88 29 18 8
39 14 47 14 8 0 29 6 47 14 18 8 73 31 123 53 49 21 110 48 135 60 52 25 58
19 40 -41z m-1620 -236 c0 -16 -7 -35 -15 -44 -8 -8 -15 -19 -15 -24 0 -11
-80 -86 -86 -80 -2 3 7 17 21 32 14 15 25 31 25 35 0 5 7 14 15 21 8 7 15 23
15 37 0 31 18 65 31 58 5 -4 9 -19 9 -35z m900 -21 c0 -14 7 -32 15 -39 8 -7
15 -19 15 -26 0 -8 5 -14 10 -14 6 0 10 -8 10 -17 0 -13 -7 -10 -30 12 -16 16
-30 33 -30 38 0 4 -7 15 -15 23 -16 16 -20 65 -8 78 11 11 33 -25 33 -55z m75
-119 c3 -5 1 -10 -4 -10 -6 0 -11 5 -11 10 0 6 2 10 4 10 3 0 8 -4 11 -10z"/>
<path d="M2767 7503 c-13 -12 -8 -208 5 -221 7 -7 35 -12 62 -12 102 -1 197
-76 213 -169 4 -25 8 -633 8 -1351 0 -1433 4 -1332 -59 -1407 -39 -47 -82 -66
-161 -72 l-70 -6 -3 -117 c-2 -76 1 -118 8 -118 5 0 190 0 410 0 220 0 405 0
410 0 7 0 10 42 8 118 l-3 117 -70 5 c-38 3 -84 13 -101 22 -52 28 -99 92
-112 150 -12 55 -20 2134 -8 2145 3 3 10 -7 16 -23 6 -16 15 -38 20 -49 10
-21 68 -187 76 -220 3 -11 10 -29 15 -40 14 -33 40 -108 46 -135 3 -14 10 -30
15 -37 6 -7 14 -27 18 -45 9 -32 32 -99 105 -303 20 -55 47 -134 61 -175 14
-41 29 -84 34 -95 12 -26 39 -102 50 -140 4 -16 18 -55 30 -85 12 -30 25 -68
30 -85 5 -16 18 -55 30 -85 11 -30 33 -91 47 -135 14 -44 29 -84 33 -90 5 -5
12 -26 18 -45 5 -19 26 -80 47 -135 20 -55 40 -113 45 -130 4 -16 18 -55 30
-85 12 -30 26 -68 30 -85 5 -16 16 -50 26 -75 9 -25 31 -85 48 -135 47 -135
38 -128 142 -126 96 2 109 9 120 61 3 14 11 39 19 55 7 17 16 39 19 50 8 31
65 198 76 220 5 11 20 54 34 95 14 41 41 120 61 175 20 55 40 114 45 130 5 17
18 55 30 85 12 30 26 69 30 85 10 36 37 113 49 140 5 11 12 29 15 40 5 21 21
65 81 230 20 55 40 114 45 130 4 17 18 55 30 85 12 30 26 69 30 85 5 17 25 75
45 130 20 55 40 114 45 130 11 39 38 115 50 140 5 11 21 56 35 100 15 44 38
109 51 144 24 62 24 70 24 385 0 176 -4 327 -9 335 -12 18 -19 3 -60 -119 -18
-52 -36 -104 -41 -115 -5 -11 -21 -56 -36 -100 -15 -44 -43 -123 -61 -175 -19
-52 -37 -104 -40 -115 -2 -11 -9 -29 -14 -40 -11 -27 -38 -103 -49 -140 -11
-39 -38 -114 -50 -140 -5 -11 -20 -54 -34 -95 -14 -41 -41 -120 -61 -175 -20
-55 -39 -109 -42 -120 -2 -11 -9 -29 -14 -40 -12 -27 -39 -104 -49 -140 -4
-16 -18 -55 -30 -85 -12 -30 -25 -68 -30 -85 -5 -16 -25 -75 -45 -130 -20 -55
-48 -134 -61 -175 -14 -41 -28 -82 -33 -90 -4 -8 -20 -54 -36 -102 -15 -50
-33 -88 -40 -88 -17 0 -31 19 -38 50 -6 29 -94 285 -107 315 -12 26 -39 102
-50 140 -4 17 -18 55 -30 85 -12 30 -25 69 -30 85 -5 17 -18 55 -30 85 -12 30
-26 69 -30 85 -13 46 -39 118 -49 135 -5 9 -12 31 -16 50 -4 19 -11 40 -15 45
-4 6 -19 46 -33 90 -14 44 -36 105 -47 135 -12 30 -25 69 -30 85 -12 43 -31
97 -43 120 -6 11 -14 33 -18 50 -8 30 -33 103 -48 140 -4 11 -13 36 -20 55 -6
19 -23 69 -37 110 -14 41 -29 84 -33 95 -17 42 -49 131 -54 150 -3 11 -22 65
-42 120 -20 55 -40 114 -45 130 -4 17 -18 55 -30 85 -12 30 -26 69 -30 85 -11
40 -37 111 -58 158 l-16 37 -331 0 c-183 0 -335 -3 -338 -7z"/>
<path d="M5064 7497 c-2 -7 -3 -60 -2 -118 l3 -104 72 -6 c83 -6 139 -36 176
-97 25 -39 51 -152 45 -193 -2 -19 5 -28 36 -43 22 -11 56 -23 75 -27 34 -7
54 -13 146 -46 44 -16 100 -40 129 -55 10 -5 22 -6 27 -1 5 5 10 110 11 233
l3 225 480 3 c508 3 534 1 605 -44 83 -52 113 -107 120 -219 l5 -90 120 0 120
0 0 295 0 295 -1083 3 c-890 2 -1083 0 -1088 -11z"/>
<path d="M4825 6885 c-97 -13 -220 -40 -240 -54 -5 -4 -37 -18 -70 -31 -159
-63 -304 -182 -401 -328 -37 -54 -49 -76 -91 -167 -22 -49 -25 -164 -5 -188 8
-9 18 -31 22 -49 5 -18 25 -78 45 -133 20 -55 40 -115 45 -133 4 -18 12 -38
18 -45 5 -7 12 -23 15 -37 6 -29 63 -196 77 -225 5 -11 21 -55 35 -98 38 -113
40 -117 115 -174 50 -38 71 -48 78 -40 6 7 24 53 40 102 47 138 100 284 108
296 3 6 -24 42 -63 83 -155 157 -206 269 -207 451 0 90 3 120 22 167 30 80 75
153 121 198 34 33 109 90 118 90 5 0 14 5 21 12 28 28 229 78 314 78 37 0 50
4 54 18 3 9 12 31 19 47 27 65 38 101 39 135 l1 35 -65 1 c-36 1 -110 -4 -165
-11z"/>
<path d="M5337 6843 c-4 -3 -7 -68 -7 -144 l0 -138 163 -163 c90 -90 194 -200
231 -246 l68 -82 31 26 c90 76 327 311 327 324 0 9 -17 30 -37 47 -21 17 -49
41 -63 53 -26 22 -114 85 -153 108 -12 7 -35 21 -52 32 -43 27 -160 83 -230
110 -33 12 -69 26 -80 31 -41 16 -159 49 -175 49 -9 0 -20 -3 -23 -7z"/>
<path d="M5357 5818 c3 -526 4 -583 19 -600 10 -10 22 -18 27 -18 6 0 18 -6
26 -14 9 -8 32 -22 51 -33 39 -21 220 -141 262 -173 21 -17 29 -19 33 -8 3 7
6 173 7 368 l3 355 310 3 310 2 49 -32 c73 -49 96 -97 104 -221 l7 -102 115 0
115 0 3 479 c1 279 -2 482 -7 485 -5 3 -58 4 -117 1 l-109 -5 -7 -102 c-8
-131 -30 -172 -118 -228 l-40 -25 -307 0 -308 0 -65 77 c-148 176 -335 373
-353 373 -9 0 -11 -135 -10 -582z"/>
<path d="M4955 5314 c-8 -20 -15 -41 -15 -46 0 -6 -6 -24 -14 -41 -8 -18 -16
-41 -19 -52 -3 -11 -21 -64 -41 -118 -19 -54 -33 -104 -30 -111 3 -7 15 -18
27 -24 12 -7 49 -27 82 -47 33 -19 69 -39 80 -45 11 -6 34 -19 50 -30 17 -11
37 -23 45 -27 8 -4 26 -14 40 -24 14 -9 79 -52 145 -95 158 -104 325 -268 372
-365 61 -128 76 -243 47 -372 -28 -121 -87 -216 -177 -285 -54 -40 -135 -82
-159 -82 -8 0 -19 -5 -24 -10 -17 -17 -191 -32 -284 -24 -195 15 -326 91 -525
303 -130 138 -104 126 -253 122 l-129 -3 -22 35 c-11 19 -21 42 -21 50 0 25
-32 87 -45 87 -7 0 -20 -10 -31 -21 -10 -12 -61 -57 -111 -101 -51 -44 -93
-87 -93 -96 0 -18 83 -116 155 -183 132 -123 264 -215 390 -273 44 -21 92 -44
107 -52 14 -8 33 -14 42 -14 8 0 30 -6 48 -14 42 -17 120 -39 223 -62 64 -14
125 -18 300 -18 194 0 229 3 297 22 87 24 159 47 185 60 10 5 36 18 58 28 155
74 328 241 404 391 31 63 49 121 66 214 50 281 -36 533 -260 768 -109 114
-262 224 -560 400 -66 39 -127 76 -135 81 -8 5 -37 21 -65 36 -27 14 -64 37
-82 50 -42 32 -50 30 -68 -12z"/>
<path d="M5345 4453 c-16 -109 -103 -183 -215 -183 -31 0 -60 -4 -65 -9 -6 -6
-9 -59 -7 -120 l3 -111 295 0 294 0 0 48 c0 55 -29 146 -66 204 -35 55 -196
218 -215 218 -12 0 -19 -13 -24 -47z"/>
<path d="M790 8440 c-124 -40 -230 -113 -304 -208 -63 -82 -77 -123 -77 -217
-1 -97 20 -147 84 -199 39 -32 51 -36 99 -36 51 0 58 3 87 35 17 20 31 47 31
61 0 82 -98 146 -145 94 -25 -28 -35 -25 -35 10 0 65 64 148 140 181 25 11 86
27 136 35 83 15 99 14 170 0 224 -46 369 -208 438 -488 32 -134 11 -297 -42
-321 -22 -10 -28 -8 -56 25 -18 20 -40 64 -50 98 -37 124 -91 198 -193 266
-56 37 -73 42 -73 19 0 -8 4 -15 8 -15 9 0 82 -96 82 -109 0 -4 7 -14 15 -21
8 -7 15 -20 15 -30 0 -10 7 -23 15 -30 8 -7 15 -25 15 -40 0 -15 7 -33 15 -40
8 -7 15 -27 15 -45 0 -18 7 -38 15 -45 8 -7 15 -28 15 -47 0 -21 6 -36 15 -39
8 -4 15 -17 15 -30 0 -13 9 -41 20 -61 11 -21 20 -42 20 -48 0 -19 98 -121
183 -191 131 -109 206 -185 241 -243 17 -30 37 -56 43 -58 18 -6 26 108 26
342 0 165 -4 221 -17 260 -20 63 -20 89 0 121 15 22 15 29 0 82 -9 32 -16 70
-16 84 0 48 -58 222 -107 323 -49 98 -153 235 -181 235 -7 0 -15 7 -18 15 -3
8 -14 17 -25 20 -10 4 -19 11 -19 16 0 15 28 10 38 -7 9 -16 32 -12 32 5 0 9
-76 84 -120 120 -14 11 -32 26 -40 34 -23 20 -138 73 -199 91 -74 22 -238 20
-311 -4z m520 -180 c0 -5 -13 -10 -30 -10 -16 0 -30 5 -30 10 0 6 14 10 30 10
17 0 30 -4 30 -10z m60 -30 c0 -5 -9 -10 -20 -10 -11 0 -20 5 -20 10 0 6 9 10
20 10 11 0 20 -4 20 -10z m221 -521 c32 -34 59 -67 59 -74 0 -7 7 -15 15 -19
8 -3 15 -12 15 -21 0 -9 7 -27 16 -40 15 -24 12 -45 -7 -45 -5 0 -9 11 -9 25
0 14 -7 28 -15 31 -8 4 -15 14 -15 23 0 9 -8 24 -17 33 -10 8 -28 29 -40 45
-12 16 -38 46 -58 66 -26 27 -31 37 -19 37 9 0 43 -28 75 -61z m147 -251 c-2
-18 -7 -33 -13 -33 -5 0 -11 15 -13 33 -3 24 1 32 13 32 12 0 16 -8 13 -32z"/>
<path d="M8890 8443 c-63 -21 -171 -74 -193 -92 -9 -9 -41 -36 -70 -61 -72
-61 -93 -88 -78 -103 9 -9 15 -8 22 6 6 9 17 17 24 17 22 0 18 -18 -4 -25 -11
-3 -22 -12 -25 -20 -3 -8 -11 -15 -18 -15 -7 0 -24 -13 -38 -28 -91 -97 -161
-217 -200 -345 -13 -39 -29 -91 -37 -115 -7 -23 -13 -54 -13 -68 0 -14 -8 -54
-17 -89 -16 -60 -16 -65 0 -83 21 -23 22 -57 1 -113 -14 -36 -17 -85 -17 -269
0 -256 7 -342 28 -334 8 3 27 29 43 57 32 55 103 127 245 246 89 74 177 167
177 186 1 5 9 28 20 50 11 22 19 50 20 61 0 12 7 24 15 28 10 3 15 19 15 45 0
25 5 41 15 45 9 3 15 18 15 39 0 19 7 40 15 47 8 7 15 25 15 40 0 15 7 33 15
40 8 7 15 21 15 31 0 10 5 21 11 24 5 4 15 17 20 28 19 42 36 67 62 91 28 26
35 46 16 46 -20 0 -117 -70 -156 -113 -43 -47 -85 -128 -103 -199 -15 -59 -65
-120 -94 -116 -56 8 -84 183 -51 321 36 151 89 257 170 345 75 80 155 125 269
148 72 15 86 15 172 0 139 -23 213 -67 255 -148 19 -38 26 -98 11 -98 -5 0
-17 9 -27 20 -26 29 -67 25 -103 -8 -52 -49 -54 -104 -7 -154 22 -24 34 -28
82 -28 49 0 61 4 99 35 61 50 84 104 84 197 0 121 -33 187 -147 294 -55 52
-158 109 -248 138 -66 21 -242 21 -305 -1z m-140 -183 c0 -5 -13 -10 -30 -10
-16 0 -30 5 -30 10 0 6 14 10 30 10 17 0 30 -4 30 -10z m-80 -30 c0 -5 -12
-10 -26 -10 -14 0 -23 4 -19 10 3 6 15 10 26 10 10 0 19 -4 19 -10z m-212
-502 c-24 -24 -50 -54 -58 -67 -8 -13 -23 -31 -32 -40 -10 -8 -18 -21 -18 -27
0 -6 -7 -17 -15 -24 -8 -7 -15 -23 -15 -36 0 -13 -4 -24 -9 -24 -19 0 -22 21
-7 45 9 13 16 31 16 40 0 9 7 18 15 21 8 4 15 12 15 19 0 19 115 135 134 135
11 0 2 -14 -26 -42z m-170 -270 c-2 -18 -7 -33 -13 -33 -5 0 -11 15 -13 33 -3
24 1 32 13 32 12 0 16 -8 13 -32z"/>
<path d="M948 7774 c46 -93 47 -96 46 -203 -1 -58 -9 -141 -18 -183 -23 -111
-21 -247 4 -303 18 -39 82 -105 103 -105 5 0 40 -18 77 -41 67 -39 140 -107
140 -130 0 -13 -48 -4 -100 18 -20 9 -80 18 -136 20 -93 5 -106 3 -156 -19
-105 -48 -161 -121 -199 -258 -66 -238 53 -504 256 -572 63 -21 106 -21 174 0
70 22 79 42 19 42 -41 0 -100 22 -135 52 -9 7 -27 31 -41 53 -24 36 -26 49
-25 140 1 80 6 110 23 149 31 69 94 128 159 149 67 21 87 21 197 -2 136 -28
234 -90 318 -198 24 -30 44 -49 50 -43 4 4 6 68 3 142 -4 109 -9 145 -30 201
-30 82 -65 134 -120 180 -23 19 -84 69 -135 111 -88 73 -152 145 -152 171 0 7
-7 18 -15 25 -8 7 -15 25 -15 40 0 15 -7 33 -15 40 -8 7 -15 27 -15 45 0 18
-7 38 -15 45 -8 7 -15 28 -15 47 0 19 -7 41 -15 49 -8 9 -15 28 -15 43 0 16
-7 34 -15 41 -8 7 -15 21 -15 31 0 9 -6 24 -13 31 -7 7 -23 33 -36 58 -13 25
-26 47 -30 50 -3 3 -14 17 -23 32 -10 14 -31 36 -49 48 -27 20 -30 21 -21 4z"/>
<path d="M9002 7741 c-26 -26 -58 -70 -72 -97 -14 -27 -31 -53 -37 -57 -7 -4
-13 -18 -13 -31 0 -13 -7 -29 -15 -36 -8 -7 -15 -25 -15 -41 0 -15 -7 -34 -15
-43 -8 -8 -15 -30 -15 -49 0 -19 -7 -40 -15 -47 -8 -7 -15 -27 -15 -45 0 -18
-7 -38 -15 -45 -8 -7 -15 -25 -15 -41 0 -15 -5 -31 -10 -34 -6 -4 -16 -21 -24
-38 -21 -51 -59 -90 -195 -201 -150 -123 -173 -153 -221 -286 -15 -42 -26
-298 -14 -310 6 -6 26 13 50 43 84 108 182 170 318 198 110 23 130 23 197 2
65 -21 128 -80 159 -149 17 -39 22 -69 23 -149 1 -91 -1 -104 -25 -140 -14
-22 -32 -46 -41 -53 -35 -30 -94 -52 -135 -52 -60 0 -51 -20 19 -42 69 -22
101 -22 169 0 206 64 327 332 261 572 -38 137 -94 210 -199 258 -50 22 -63 24
-156 19 -56 -2 -116 -11 -136 -20 -52 -22 -100 -31 -100 -18 0 26 85 99 167
145 157 88 168 107 168 281 0 68 -6 144 -14 175 -8 30 -15 102 -15 161 -1 106
-1 108 46 202 14 29 -1 19 -50 -32z"/>
<path d="M1140 6525 c-43 -20 -85 -58 -116 -107 -21 -32 -24 -50 -24 -123 0
-103 20 -150 82 -195 47 -34 128 -44 128 -15 0 8 -7 15 -16 15 -31 0 -102 51
-118 84 -19 39 -19 69 -3 112 39 101 140 145 283 122 105 -16 166 -64 242
-190 89 -146 124 -295 102 -433 -22 -135 -23 -155 -11 -155 40 0 91 258 71
360 -6 30 -15 82 -21 115 -5 32 -14 64 -19 69 -6 6 -10 16 -10 24 0 24 -71
132 -116 177 -46 46 -130 99 -204 129 -64 25 -204 31 -250 11z"/>
<path d="M8655 6531 c-76 -19 -194 -89 -260 -156 -35 -35 -105 -146 -105 -167
0 -8 -4 -18 -9 -23 -6 -6 -15 -37 -21 -70 -35 -198 -34 -187 -15 -291 20 -104
49 -184 67 -184 10 0 10 5 -13 158 -12 83 -9 111 19 247 17 77 91 213 156 284
49 53 97 78 170 89 123 20 213 -9 260 -82 68 -105 26 -199 -107 -240 -31 -10
-8 -26 37 -26 54 0 117 43 146 99 31 61 29 198 -4 249 -32 51 -74 88 -118 106
-39 17 -148 20 -203 7z"/>
<path d="M2205 6168 c-253 -151 -375 -326 -401 -576 -10 -97 -45 -182 -75
-182 -3 0 -17 33 -29 73 -77 240 -232 423 -376 442 -45 6 -53 4 -82 -20 -52
-43 -42 -113 30 -222 26 -38 36 -73 22 -73 -3 0 -20 10 -37 23 -35 26 -155 80
-227 104 -63 20 -195 43 -255 43 -60 0 -184 -23 -242 -44 -98 -36 -226 -118
-296 -191 -90 -92 -197 -294 -211 -397 -4 -27 -11 -48 -17 -48 -5 0 -9 -36 -9
-80 0 -44 4 -80 9 -80 5 0 12 -19 16 -42 16 -101 119 -252 199 -294 41 -21
198 -53 261 -53 28 0 68 4 90 10 22 6 51 13 64 16 34 8 103 57 139 97 16 19
45 65 63 102 30 63 33 77 33 159 0 109 -18 151 -94 217 -40 35 -66 49 -119 61
-62 15 -72 15 -132 0 -73 -18 -105 -39 -136 -91 -23 -38 -31 -102 -13 -102 6
0 23 14 38 31 24 26 36 32 72 32 36 0 48 -6 72 -32 25 -27 28 -39 28 -96 0
-91 -40 -160 -114 -196 -50 -24 -150 -26 -194 -3 -49 24 -121 112 -143 174
-33 94 -21 186 42 315 42 85 94 151 169 212 66 53 195 123 228 123 10 0 22 4
28 9 16 16 189 41 282 41 131 0 269 -34 381 -93 31 -16 63 -36 72 -43 8 -8 21
-14 27 -14 21 0 182 -163 227 -229 101 -153 162 -309 186 -479 11 -79 6 -342
-8 -399 -6 -27 -22 -30 -29 -5 -31 101 -125 213 -289 346 -55 44 -124 103
-153 130 -61 57 -122 154 -122 194 0 15 -5 34 -10 42 -8 13 -11 13 -24 0 -11
-11 -17 -49 -22 -141 -10 -185 20 -377 81 -524 30 -71 76 -127 229 -285 83
-85 159 -172 169 -192 33 -69 57 -54 39 24 -43 179 -95 282 -246 482 -132 175
-156 210 -156 226 0 6 -7 18 -15 26 -17 18 -20 44 -5 44 6 0 13 -8 17 -17 3
-10 12 -25 20 -33 7 -8 30 -37 52 -65 21 -27 69 -84 106 -125 83 -91 130 -162
192 -289 103 -212 103 -211 101 -557 -1 -240 2 -303 16 -369 25 -115 74 -281
95 -323 5 -9 28 -55 51 -102 23 -47 47 -94 54 -105 109 -181 288 -381 464
-520 51 -39 71 -60 63 -68 -7 -7 -19 -6 -38 2 -15 6 -48 15 -73 20 -47 9 -94
24 -145 46 -16 7 -37 16 -45 19 -134 54 -351 258 -498 468 -116 167 -182 357
-236 678 -9 52 -21 120 -26 150 -6 30 -15 83 -21 117 -40 237 -205 492 -449
697 -50 42 -95 76 -100 76 -13 0 -13 -37 -1 -44 13 -9 45 -82 64 -146 35 -118
46 -191 52 -345 11 -283 34 -618 45 -675 54 -263 85 -351 187 -528 24 -41 43
-75 43 -77 0 -19 163 -237 233 -312 54 -57 170 -152 232 -190 54 -33 188 -94
255 -116 157 -54 240 -67 411 -67 158 0 227 9 340 45 26 8 49 15 53 15 14 0 4
-24 -26 -61 -55 -68 -61 -96 -68 -319 -4 -113 -10 -215 -14 -227 -15 -41 13
-25 87 50 49 48 83 95 107 142 33 66 35 77 41 205 3 74 11 148 18 163 11 29 8
47 -10 47 -5 0 -9 -7 -9 -15 0 -7 -6 -18 -12 -22 -32 -20 -75 -155 -83 -263
-7 -88 -13 -112 -26 -105 -15 10 -11 167 6 199 8 15 15 43 15 61 0 18 7 38 15
45 8 7 15 21 15 31 0 9 7 24 15 33 8 8 15 18 15 23 0 5 20 29 45 53 25 24 45
49 45 55 0 6 -20 28 -45 48 -127 107 -300 404 -358 617 -24 85 -28 131 -31
335 -2 105 -7 228 -11 274 -6 63 -5 82 3 77 7 -4 12 -18 12 -32 0 -14 7 -41
16 -62 11 -25 19 -87 25 -187 8 -143 21 -235 48 -335 7 -25 19 -72 28 -105 15
-60 32 -110 59 -173 8 -18 14 -37 14 -41 0 -5 16 -38 36 -73 21 -34 43 -75 51
-90 15 -28 44 -39 42 -15 0 6 -5 35 -10 62 -5 28 -13 201 -18 385 -8 345 -12
382 -57 473 -8 16 -14 33 -14 37 0 16 -72 134 -126 205 -83 110 -320 345 -348
345 -26 0 -23 -24 10 -90 68 -136 72 -233 23 -520 -45 -260 -36 -385 37 -565
32 -80 126 -205 238 -316 48 -48 83 -90 78 -93 -5 -3 -15 1 -22 9 -7 8 -18 15
-26 15 -7 0 -17 6 -21 13 -4 6 -17 17 -28 24 -133 79 -162 103 -267 212 -101
104 -228 267 -228 291 0 4 -6 12 -12 18 -7 6 -31 46 -52 89 -21 43 -45 90 -52
105 -8 14 -14 35 -14 46 0 11 -7 25 -15 32 -8 7 -15 27 -15 44 0 17 -7 40 -15
50 -8 11 -15 36 -15 56 0 20 -7 45 -15 56 -8 10 -15 39 -15 64 0 25 -7 70 -15
100 -20 75 -20 371 0 455 8 33 15 79 15 103 0 23 7 59 15 79 8 19 15 51 15 70
0 18 7 50 15 70 8 19 15 48 15 63 0 15 7 44 15 63 8 20 15 50 15 67 0 17 6 43
14 58 7 15 16 49 20 76 3 27 10 54 16 60 5 7 13 40 17 74 4 35 13 63 18 62 17
0 17 -86 1 -125 -9 -21 -16 -56 -16 -79 -1 -22 -7 -52 -15 -66 -8 -14 -14 -41
-15 -60 0 -19 -6 -46 -13 -61 -8 -14 -17 -49 -20 -79 -4 -29 -11 -58 -17 -64
-5 -5 -10 -25 -10 -43 0 -18 -6 -52 -14 -75 -27 -78 -40 -220 -40 -423 1 -201
14 -366 32 -388 5 -7 13 -36 17 -64 4 -29 11 -53 16 -53 5 0 9 -10 9 -22 0
-39 12 -68 26 -68 9 0 14 -12 14 -35 0 -36 13 -47 24 -19 3 8 0 25 -6 37 -15
27 -32 99 -59 247 -18 100 -20 141 -15 310 6 226 23 360 66 510 12 45 70 274
80 320 4 19 12 55 18 80 31 130 42 196 53 305 10 102 9 135 -4 218 -18 108
-60 207 -108 254 -16 15 -29 34 -29 40 0 7 33 45 73 85 115 114 140 181 177
480 12 98 33 163 69 208 25 31 31 60 13 60 -4 0 -38 -19 -77 -42z m-95 -162
c0 -16 -18 -31 -27 -22 -8 8 5 36 17 36 5 0 10 -6 10 -14z m-30 -65 c0 -16 -7
-34 -15 -41 -8 -7 -15 -27 -15 -44 0 -18 -4 -36 -10 -42 -5 -5 -14 -30 -19
-54 -25 -122 -95 -249 -199 -362 -57 -61 -69 -68 -79 -42 -4 10 13 34 52 72
31 31 69 77 83 102 14 25 30 47 34 48 4 2 8 10 8 18 0 12 21 61 51 116 5 10 9
26 9 36 0 9 9 34 20 55 11 20 20 48 20 62 0 14 7 28 15 31 8 4 15 18 15 33 0
15 3 31 7 34 14 15 23 6 23 -22z"/>
<path d="M7705 6200 c-3 -5 7 -27 23 -47 36 -47 59 -111 67 -183 19 -171 53
-324 91 -400 9 -19 50 -68 91 -108 40 -40 73 -78 73 -85 0 -6 -13 -25 -29 -40
-64 -63 -121 -235 -121 -367 0 -91 35 -316 66 -426 8 -28 14 -61 14 -73 0 -12
4 -30 10 -40 5 -10 16 -47 24 -82 8 -35 21 -91 29 -124 28 -111 65 -299 76
-386 24 -186 3 -540 -38 -642 -6 -16 -11 -39 -11 -53 0 -14 -7 -35 -15 -48 -9
-13 -13 -31 -9 -40 11 -28 24 -18 24 19 0 23 5 35 14 35 9 0 17 16 21 43 4 23
11 44 14 47 9 7 36 135 62 300 21 132 -3 525 -40 640 -6 19 -11 49 -11 65 0
17 -5 36 -10 41 -6 6 -13 35 -17 64 -3 30 -12 65 -20 79 -7 15 -13 42 -13 61
-1 19 -7 46 -15 60 -8 14 -14 44 -15 68 0 24 -7 56 -16 73 -16 33 -16 128 1
132 5 1 14 -27 18 -63 4 -35 12 -69 17 -75 5 -6 14 -35 19 -65 11 -64 27 -127
47 -191 8 -26 14 -58 14 -72 0 -13 7 -41 15 -60 8 -20 15 -52 15 -72 0 -20 7
-52 15 -72 8 -19 15 -56 15 -82 1 -25 7 -73 15 -106 20 -84 20 -374 0 -441 -8
-27 -15 -69 -15 -94 -1 -25 -7 -56 -15 -70 -8 -14 -14 -41 -15 -61 0 -19 -7
-44 -15 -55 -8 -10 -15 -31 -15 -45 0 -14 -7 -34 -15 -45 -8 -10 -15 -27 -15
-37 0 -11 -6 -31 -13 -45 -8 -15 -23 -45 -33 -67 -34 -71 -63 -120 -148 -246
-64 -94 -284 -317 -356 -358 -86 -50 -94 -55 -103 -68 -4 -7 -14 -13 -21 -13
-8 0 -19 -7 -26 -15 -8 -10 -17 -12 -23 -6 -6 6 7 23 34 48 160 143 265 292
319 453 36 106 36 282 1 465 -51 265 -43 413 27 539 32 55 30 83 -5 72 -51
-16 -353 -343 -411 -444 -108 -191 -120 -251 -121 -607 -1 -160 -7 -286 -16
-350 -18 -122 -18 -115 -2 -115 23 1 135 212 152 288 3 18 11 34 16 37 5 4 9
15 9 27 0 11 7 41 15 67 46 148 75 317 75 437 0 74 5 118 20 164 11 34 20 71
20 81 0 10 5 21 11 25 8 4 9 -12 5 -57 -3 -35 -10 -174 -14 -309 -9 -246 -17
-303 -60 -419 -21 -57 -130 -271 -148 -292 -8 -8 -14 -19 -14 -23 0 -16 -132
-177 -170 -208 -22 -17 -40 -36 -40 -41 0 -6 19 -31 43 -57 59 -66 77 -92 77
-111 0 -9 7 -22 15 -29 8 -7 15 -27 15 -45 0 -18 7 -46 15 -61 26 -50 17 -238
-9 -196 -3 5 -8 51 -12 103 -4 52 -10 99 -15 104 -4 6 -11 30 -15 53 -3 23
-13 47 -20 53 -8 6 -14 19 -14 29 0 10 -7 20 -15 24 -8 3 -15 12 -15 21 0 8
-4 15 -9 15 -18 0 -21 -18 -10 -47 6 -15 14 -89 18 -163 6 -127 9 -139 41
-205 24 -47 58 -93 107 -142 74 -75 102 -91 87 -50 -4 12 -10 114 -13 227 -6
198 -7 207 -33 261 -16 31 -37 64 -48 74 -11 10 -20 24 -20 32 0 15 26 18 34
4 4 -5 25 -12 49 -16 23 -4 67 -13 97 -21 88 -23 358 -19 467 7 146 34 316
100 418 162 59 36 177 132 225 183 70 74 240 300 240 319 0 2 19 36 43 77 46
80 67 122 90 183 8 22 22 58 30 80 62 157 85 342 107 845 13 293 31 401 93
537 10 24 23 45 28 49 14 8 11 44 -4 44 -27 0 -225 -186 -308 -289 -154 -190
-212 -321 -254 -566 -75 -446 -97 -536 -172 -695 -79 -167 -262 -399 -403
-511 -110 -88 -270 -168 -380 -190 -25 -5 -58 -14 -73 -20 -19 -8 -31 -9 -38
-2 -8 8 12 29 63 69 150 118 316 295 411 436 53 80 68 106 113 198 20 41 40
83 45 92 10 20 39 108 62 188 41 143 47 204 47 502 0 240 3 301 16 347 17 58
81 219 94 236 4 6 22 37 40 70 37 68 72 113 181 236 42 48 85 99 95 115 10 16
24 33 31 37 7 4 13 17 13 28 0 12 5 19 12 17 19 -7 20 -24 3 -41 -8 -9 -15
-21 -15 -27 0 -16 -23 -50 -156 -226 -126 -167 -186 -273 -224 -397 -23 -75
-30 -144 -16 -149 5 -2 20 17 34 42 14 25 89 110 168 190 143 146 199 215 229
286 56 130 80 286 79 492 -1 123 -5 157 -17 169 -20 21 -37 8 -37 -28 0 -38
-38 -112 -85 -167 -20 -23 -94 -89 -163 -146 -193 -157 -295 -273 -312 -355
-7 -32 -26 -38 -33 -9 -14 56 -19 336 -8 408 26 166 88 322 186 471 45 66 206
229 227 229 6 0 19 6 27 14 9 8 41 27 71 43 110 59 251 93 382 93 93 0 266
-25 282 -41 6 -5 18 -9 28 -9 51 0 236 -116 298 -186 99 -113 167 -278 157
-383 -9 -101 -65 -195 -149 -247 -69 -44 -190 -30 -255 29 -61 54 -84 183 -46
248 32 54 115 58 157 8 14 -16 29 -29 35 -29 19 0 12 64 -12 102 -31 52 -63
73 -136 91 -60 15 -70 15 -132 0 -53 -12 -79 -26 -119 -61 -78 -68 -95 -108
-94 -222 1 -90 3 -99 38 -165 42 -79 72 -114 132 -155 49 -33 150 -60 220 -60
63 1 220 33 260 54 80 42 183 193 199 294 4 23 11 42 16 42 5 0 9 36 9 80 0
44 -4 80 -10 80 -5 0 -12 17 -15 38 -21 123 -116 306 -211 405 -69 72 -199
157 -297 193 -58 21 -182 44 -242 44 -63 0 -206 -24 -265 -45 -25 -9 -73 -29
-108 -45 -35 -17 -66 -30 -69 -30 -3 0 -21 -11 -39 -25 -18 -14 -35 -25 -38
-25 -12 0 -5 33 13 58 39 56 71 132 71 171 0 32 -6 44 -32 66 -29 24 -37 26
-82 20 -112 -14 -226 -119 -304 -278 -64 -130 -82 -173 -82 -195 0 -31 -16
-45 -37 -34 -19 11 -53 100 -53 143 0 38 -37 200 -55 243 -59 140 -176 261
-351 364 -76 46 -80 47 -89 32z m213 -204 c3 -12 -1 -17 -10 -14 -7 3 -15 13
-16 22 -3 12 1 17 10 14 7 -3 15 -13 16 -22z m30 -62 c2 -16 10 -33 18 -37 8
-4 14 -20 14 -35 0 -15 6 -36 14 -47 7 -11 17 -36 21 -55 4 -19 11 -41 16 -50
16 -31 49 -106 49 -112 0 -17 83 -129 129 -173 51 -50 60 -68 40 -81 -18 -11
-132 112 -186 201 -35 58 -71 149 -84 215 -5 24 -14 49 -19 54 -6 6 -10 24
-10 42 0 17 -7 37 -15 44 -18 15 -21 74 -2 68 6 -3 14 -18 15 -34z"/>
<path d="M8020 3000 c0 -19 3 -21 12 -12 9 9 9 15 0 24 -9 9 -12 7 -12 -12z"/>
<path d="M1960 3001 c0 -6 5 -13 10 -16 6 -3 10 1 10 9 0 9 -4 16 -10 16 -5 0
-10 -4 -10 -9z"/>
<path d="M3662 2138 c-5 -7 -22 -39 -36 -70 -21 -46 -26 -72 -26 -135 0 -74 3
-84 50 -180 62 -126 67 -177 20 -241 -40 -55 -72 -75 -126 -76 -38 -1 -50 4
-70 27 -13 15 -24 40 -24 54 0 25 1 25 54 19 47 -6 58 -4 75 13 25 25 27 53 5
85 -33 51 -121 40 -174 -21 -30 -34 -32 -40 -28 -95 4 -51 9 -63 41 -96 38
-39 111 -72 158 -72 43 0 150 38 188 68 93 70 135 134 149 226 18 111 -7 192
-103 341 -29 44 -55 90 -59 103 -11 32 -29 15 -23 -22 5 -33 24 -92 38 -116
10 -17 11 -18 50 -119 24 -60 29 -89 29 -156 0 -86 -5 -115 -21 -115 -5 0 -9
38 -9 86 0 84 -11 124 -55 206 -8 14 -15 33 -15 41 0 9 -6 28 -14 44 -27 55
-48 132 -44 169 3 39 -11 54 -30 32z m158 -602 c0 -16 -18 -31 -27 -22 -8 8 5
36 17 36 5 0 10 -6 10 -14z"/>
<path d="M6309 2143 c-1 -4 0 -23 1 -41 2 -34 -21 -114 -46 -165 -8 -16 -14
-33 -14 -39 0 -5 -6 -24 -14 -41 -54 -120 -56 -126 -56 -211 0 -48 -4 -86 -9
-86 -16 0 -21 29 -21 115 0 82 13 128 75 270 38 89 45 108 45 130 0 32 -17 41
-26 13 -4 -13 -32 -61 -63 -108 -71 -109 -87 -144 -99 -222 -22 -140 24 -245
149 -340 39 -30 145 -68 190 -68 40 0 109 28 142 59 41 37 57 73 57 125 0 36
-6 52 -31 81 -52 59 -141 69 -173 19 -42 -63 -2 -110 83 -98 50 6 51 6 51 -18
0 -33 -33 -74 -65 -82 -40 -10 -98 10 -132 46 -72 77 -72 130 -3 271 47 96 50
105 50 182 0 71 -4 88 -32 145 -30 57 -56 86 -59 63z m-101 -617 c3 -12 -1
-17 -10 -14 -7 3 -15 13 -16 22 -3 12 1 17 10 14 7 -3 15 -13 16 -22z"/>
</g>
</svg>
